<svg width="0" height="0" class="hidden">
  <symbol fill="none" xmlns="http://www.w3.org/2000/svg" viewBox="0 0 24 24" id="angle-small-down">
    <path d="M18.7099 8.20998C18.6169 8.11625 18.5063 8.04186 18.3845 7.99109C18.2626 7.94032 18.1319 7.91418 17.9999 7.91418C17.8679 7.91418 17.7372 7.94032 17.6153 7.99109C17.4934 8.04186 17.3828 8.11625 17.2899 8.20998L12.7099 12.79C12.6169 12.8837 12.5063 12.9581 12.3845 13.0089C12.2626 13.0596 12.1319 13.0858 11.9999 13.0858C11.8679 13.0858 11.7372 13.0596 11.6153 13.0089C11.4934 12.9581 11.3828 12.8837 11.2899 12.79L6.70988 8.20998C6.61691 8.11625 6.50631 8.04186 6.38445 7.99109C6.26259 7.94032 6.13189 7.91418 5.99988 7.91418C5.86787 7.91418 5.73716 7.94032 5.6153 7.99109C5.49344 8.04186 5.38284 8.11625 5.28988 8.20998C5.10363 8.39734 4.99908 8.6508 4.99908 8.91498C4.99908 9.17917 5.10363 9.43262 5.28988 9.61998L9.87988 14.21C10.4424 14.7718 11.2049 15.0873 11.9999 15.0873C12.7949 15.0873 13.5574 14.7718 14.1199 14.21L18.7099 9.61998C18.8961 9.43262 19.0007 9.17917 19.0007 8.91498C19.0007 8.6508 18.8961 8.39734 18.7099 8.20998Z" fill="var(--color-flat-icon)"></path>
  </symbol>
  <symbol fill="none" xmlns="http://www.w3.org/2000/svg" viewBox="0 0 24 24" id="apps">
    <g clip-path="url(#clip0_617_1366)">
      <path d="M7 0H4C2.93913 0 1.92172 0.421427 1.17157 1.17157C0.421427 1.92172 0 2.93913 0 4L0 7C0 8.06087 0.421427 9.07828 1.17157 9.82843C1.92172 10.5786 2.93913 11 4 11H7C8.06087 11 9.07828 10.5786 9.82843 9.82843C10.5786 9.07828 11 8.06087 11 7V4C11 2.93913 10.5786 1.92172 9.82843 1.17157C9.07828 0.421427 8.06087 0 7 0V0ZM9 7C9 7.53043 8.78929 8.03914 8.41421 8.41421C8.03914 8.78929 7.53043 9 7 9H4C3.46957 9 2.96086 8.78929 2.58579 8.41421C2.21071 8.03914 2 7.53043 2 7V4C2 3.46957 2.21071 2.96086 2.58579 2.58579C2.96086 2.21071 3.46957 2 4 2H7C7.53043 2 8.03914 2.21071 8.41421 2.58579C8.78929 2.96086 9 3.46957 9 4V7Z" fill="var(--color-flat-icon)"></path>
      <path d="M19.9998 0H16.9998C15.939 0 14.9216 0.421428 14.1714 1.17157C13.4213 1.92172 12.9998 2.93914 12.9998 4V7C12.9998 8.06087 13.4213 9.07829 14.1714 9.82843C14.9216 10.5786 15.939 11 16.9998 11H19.9998C21.0607 11 22.0781 10.5786 22.8283 9.82843C23.5784 9.07829 23.9998 8.06087 23.9998 7V4C23.9998 2.93914 23.5784 1.92172 22.8283 1.17157C22.0781 0.421428 21.0607 0 19.9998 0V0ZM21.9998 7C21.9998 7.53044 21.7891 8.03915 21.414 8.41422C21.039 8.78929 20.5303 9.00001 19.9998 9.00001H16.9998C16.4694 9.00001 15.9607 8.78929 15.5856 8.41422C15.2106 8.03915 14.9998 7.53044 14.9998 7V4C14.9998 3.46957 15.2106 2.96086 15.5856 2.58579C15.9607 2.21072 16.4694 2 16.9998 2H19.9998C20.5303 2 21.039 2.21072 21.414 2.58579C21.7891 2.96086 21.9998 3.46957 21.9998 4V7Z" fill="var(--color-flat-icon)"></path>
      <path d="M7 13H4C2.93913 13 1.92172 13.4214 1.17157 14.1716C0.421427 14.9217 0 15.9391 0 17L0 20C0 21.0609 0.421427 22.0783 1.17157 22.8284C1.92172 23.5786 2.93913 24 4 24H7C8.06087 24 9.07828 23.5786 9.82843 22.8284C10.5786 22.0783 11 21.0609 11 20V17C11 15.9391 10.5786 14.9217 9.82843 14.1716C9.07828 13.4214 8.06087 13 7 13ZM9 20C9 20.5304 8.78929 21.0392 8.41421 21.4142C8.03914 21.7893 7.53043 22 7 22H4C3.46957 22 2.96086 21.7893 2.58579 21.4142C2.21071 21.0392 2 20.5304 2 20V17C2 16.4696 2.21071 15.9609 2.58579 15.5858C2.96086 15.2107 3.46957 15 4 15H7C7.53043 15 8.03914 15.2107 8.41421 15.5858C8.78929 15.9609 9 16.4696 9 17V20Z" fill="var(--color-flat-icon)"></path>
      <path d="M19.9998 13H16.9998C15.939 13 14.9216 13.4214 14.1714 14.1716C13.4213 14.9217 12.9998 15.9391 12.9998 17V20C12.9998 21.0609 13.4213 22.0783 14.1714 22.8284C14.9216 23.5786 15.939 24 16.9998 24H19.9998C21.0607 24 22.0781 23.5786 22.8283 22.8284C23.5784 22.0783 23.9998 21.0609 23.9998 20V17C23.9998 15.9391 23.5784 14.9217 22.8283 14.1716C22.0781 13.4214 21.0607 13 19.9998 13ZM21.9998 20C21.9998 20.5304 21.7891 21.0392 21.414 21.4142C21.039 21.7893 20.5303 22 19.9998 22H16.9998C16.4694 22 15.9607 21.7893 15.5856 21.4142C15.2106 21.0392 14.9998 20.5304 14.9998 20V17C14.9998 16.4696 15.2106 15.9609 15.5856 15.5858C15.9607 15.2107 16.4694 15 16.9998 15H19.9998C20.5303 15 21.039 15.2107 21.414 15.5858C21.7891 15.9609 21.9998 16.4696 21.9998 17V20Z" fill="var(--color-flat-icon)"></path>
    </g>
    <defs>
      <clipPath id="clip0_617_1366">
        <rect width="24" height="24" fill="white"></rect>
      </clipPath>
    </defs>
  </symbol>
  <symbol fill="none" xmlns="http://www.w3.org/2000/svg" viewBox="0 0 24 24" id="arrow-right">
    <g clip-path="url(#clip0_617_1386)">
      <path d="M23.12 9.91002L19.25 6.00002C19.157 5.90629 19.0464 5.8319 18.9246 5.78113C18.8027 5.73036 18.672 5.70422 18.54 5.70422C18.408 5.70422 18.2773 5.73036 18.1554 5.78113C18.0336 5.8319 17.923 5.90629 17.83 6.00002C17.6437 6.18738 17.5392 6.44084 17.5392 6.70502C17.5392 6.96921 17.6437 7.22266 17.83 7.41002L21.39 11H0.999992C0.734776 11 0.480422 11.1054 0.292886 11.2929C0.105349 11.4805 -7.62939e-06 11.7348 -7.62939e-06 12H-7.62939e-06C-7.62939e-06 12.2652 0.105349 12.5196 0.292886 12.7071C0.480422 12.8947 0.734776 13 0.999992 13H21.45L17.83 16.61C17.7363 16.703 17.6619 16.8136 17.6111 16.9354C17.5603 17.0573 17.5342 17.188 17.5342 17.32C17.5342 17.452 17.5603 17.5827 17.6111 17.7046C17.6619 17.8265 17.7363 17.9371 17.83 18.03C17.923 18.1238 18.0336 18.1981 18.1554 18.2489C18.2773 18.2997 18.408 18.3258 18.54 18.3258C18.672 18.3258 18.8027 18.2997 18.9246 18.2489C19.0464 18.1981 19.157 18.1238 19.25 18.03L23.12 14.15C23.6818 13.5875 23.9974 12.825 23.9974 12.03C23.9974 11.235 23.6818 10.4725 23.12 9.91002Z" fill="var(--color-flat-icon)"></path>
    </g>
    <defs>
      <clipPath id="clip0_617_1386">
        <rect width="24" height="24" fill="white"></rect>
      </clipPath>
    </defs>
  </symbol>
  <symbol fill="none" xmlns="http://www.w3.org/2000/svg" viewBox="0 0 39 32" id="arrow-small-group">
    <path d="M20.2352 11.715H9.58514L13.089 8.21116C13.1888 8.11215 13.2681 7.99436 13.3221 7.86458C13.3762 7.7348 13.404 7.5956 13.404 7.45501C13.404 7.31441 13.3762 7.17521 13.3221 7.04543C13.2681 6.91565 13.1888 6.79786 13.089 6.69885C12.8895 6.5005 12.6195 6.38916 12.3382 6.38916C12.0568 6.38916 11.7869 6.5005 11.5873 6.69885L7.01849 11.2784C6.61849 11.676 6.39251 12.216 6.39014 12.78C6.39532 13.3403 6.62108 13.876 7.01849 14.271L11.5873 18.8505C11.6866 18.9491 11.8044 19.0272 11.9339 19.0803C12.0633 19.1334 12.202 19.1605 12.3419 19.16C12.4819 19.1595 12.6203 19.1314 12.7494 19.0774C12.8785 19.0234 12.9957 18.9445 13.0943 18.8452C13.1929 18.7459 13.271 18.6281 13.3241 18.4987C13.3772 18.3692 13.4043 18.2305 13.4038 18.0906C13.4033 17.9507 13.3752 17.8122 13.3212 17.6831C13.2672 17.554 13.1883 17.4368 13.089 17.3382L9.58514 13.845H20.2352C20.5176 13.845 20.7885 13.7328 20.9882 13.5331C21.188 13.3334 21.3002 13.0625 21.3002 12.78C21.3002 12.4976 21.188 12.2267 20.9882 12.0269C20.7885 11.8272 20.5176 11.715 20.2352 11.715Z" fill="#555555"></path>
    <path d="M32.17 18.78C32.1649 18.2197 31.9391 17.684 31.5417 17.289L26.9728 12.7095C26.7733 12.5112 26.5034 12.3998 26.222 12.3998C25.9406 12.3998 25.6707 12.5112 25.4712 12.7095C25.3714 12.8085 25.2921 12.9263 25.2381 13.0561C25.184 13.1859 25.1562 13.3251 25.1562 13.4657C25.1562 13.6063 25.184 13.7455 25.2381 13.8752C25.2921 14.005 25.3714 14.1228 25.4712 14.2218L28.975 17.715H18.325C18.0426 17.715 17.7717 17.8272 17.5719 18.027C17.3722 18.2267 17.26 18.4976 17.26 18.78C17.26 19.0625 17.3722 19.3334 17.5719 19.5331C17.7717 19.7328 18.0426 19.845 18.325 19.845H28.975L25.4712 23.3489C25.2706 23.548 25.1574 23.8187 25.1564 24.1013C25.1554 24.3839 25.2667 24.6553 25.4659 24.8559C25.665 25.0564 25.9356 25.1696 26.2182 25.1706C26.5009 25.1716 26.7723 25.0603 26.9728 24.8612L31.5417 20.2817C31.9417 19.8841 32.1677 19.344 32.17 18.78Z" fill="#555555"></path>
  </symbol>
  <symbol fill="none" xmlns="http://www.w3.org/2000/svg" viewBox="0 0 24 24" id="arrow-small-right">
    <path d="M18.0001 12C17.9952 11.4739 17.7832 10.9709 17.4101 10.6L13.1201 6.30001C12.9327 6.11376 12.6793 6.00922 12.4151 6.00922C12.1509 6.00922 11.8974 6.11376 11.7101 6.30001C11.6163 6.39297 11.542 6.50357 11.4912 6.62543C11.4404 6.74729 11.4143 6.878 11.4143 7.01001C11.4143 7.14202 11.4404 7.27272 11.4912 7.39458C11.542 7.51644 11.6163 7.62704 11.7101 7.72001L15.0001 11H5.00008C4.73486 11 4.48051 11.1054 4.29297 11.2929C4.10543 11.4804 4.00008 11.7348 4.00008 12C4.00008 12.2652 4.10543 12.5196 4.29297 12.7071C4.48051 12.8946 4.73486 13 5.00008 13H15.0001L11.7101 16.29C11.5218 16.477 11.4155 16.7311 11.4145 16.9965C11.4136 17.2618 11.5181 17.5167 11.7051 17.705C11.8921 17.8933 12.1462 17.9996 12.4115 18.0006C12.6769 18.0015 12.9318 17.897 13.1201 17.71L17.4101 13.41C17.7857 13.0367 17.9978 12.5296 18.0001 12Z" fill="var(--color-flat-icon)"></path>
  </symbol>
  <symbol fill="none" xmlns="http://www.w3.org/2000/svg" viewBox="0 0 24 24" id="bell">
    <g clip-path="url(#clip0_617_1451)">
      <path d="M22.5549 13.6619L20.6549 6.82593C20.098 4.82327 18.8876 3.06422 17.2162 1.8284C15.5448 0.592587 13.5083 -0.049079 11.4304 0.00540109C9.35242 0.0598812 7.35231 0.807381 5.74796 2.12908C4.14362 3.45078 3.0271 5.27084 2.5759 7.29993L1.1049 13.9149C0.942413 14.6459 0.94617 15.404 1.11589 16.1333C1.28561 16.8625 1.61696 17.5444 2.08548 18.1285C2.554 18.7126 3.14772 19.184 3.82281 19.5079C4.4979 19.8318 5.23712 20 5.9859 19.9999H7.0999C7.32941 21.1302 7.94263 22.1464 8.83564 22.8763C9.72865 23.6062 10.8465 24.0049 11.9999 24.0049C13.1533 24.0049 14.2711 23.6062 15.1642 22.8763C16.0572 22.1464 16.6704 21.1302 16.8999 19.9999H17.7379C18.5087 20 19.2691 19.8218 19.9597 19.4794C20.6502 19.1369 21.2522 18.6394 21.7187 18.0258C22.1852 17.4122 22.5035 16.699 22.6487 15.942C22.7939 15.185 22.7622 14.4046 22.5559 13.6619H22.5549ZM11.9999 21.9999C11.3816 21.9974 10.7793 21.8039 10.2752 21.4458C9.77113 21.0878 9.38998 20.5828 9.1839 19.9999H14.8159C14.6098 20.5828 14.2287 21.0878 13.7246 21.4458C13.2205 21.8039 12.6182 21.9974 11.9999 21.9999ZM20.1259 16.8149C19.8472 17.1846 19.4862 17.4842 19.0715 17.6899C18.6568 17.8956 18.1998 18.0018 17.7369 17.9999H5.9859C5.53668 17.9999 5.09322 17.8989 4.68824 17.7045C4.28326 17.5101 3.9271 17.2273 3.64606 16.8768C3.36502 16.5264 3.16626 16.1173 3.06446 15.6798C2.96266 15.2423 2.96042 14.7874 3.0579 14.3489L4.5279 7.73293C4.88225 6.13914 5.7592 4.70954 7.01935 3.67138C8.2795 2.63323 9.85052 2.04611 11.4827 2.00335C13.1148 1.96059 14.7144 2.46465 16.0272 3.4354C17.34 4.40616 18.2906 5.78788 18.7279 7.36093L20.6279 14.1969C20.7534 14.6423 20.7734 15.1108 20.6863 15.5653C20.5992 16.0197 20.4073 16.4476 20.1259 16.8149Z" fill="var(--color-flat-icon)"></path>
    </g>
    <defs>
      <clipPath id="clip0_617_1451">
        <rect width="24" height="24" fill="white"></rect>
      </clipPath>
    </defs>
  </symbol>
  <symbol fill="none" xmlns="http://www.w3.org/2000/svg" viewBox="0 0 24 24" id="calendar">
    <g clip-path="url(#clip0_617_1520)">
      <path d="M19 2H18V1C18 0.734784 17.8946 0.48043 17.7071 0.292893C17.5196 0.105357 17.2652 0 17 0C16.7348 0 16.4804 0.105357 16.2929 0.292893C16.1054 0.48043 16 0.734784 16 1V2H8V1C8 0.734784 7.89464 0.48043 7.70711 0.292893C7.51957 0.105357 7.26522 0 7 0C6.73478 0 6.48043 0.105357 6.29289 0.292893C6.10536 0.48043 6 0.734784 6 1V2H5C3.67441 2.00159 2.40356 2.52888 1.46622 3.46622C0.528882 4.40356 0.00158786 5.67441 0 7L0 19C0.00158786 20.3256 0.528882 21.5964 1.46622 22.5338C2.40356 23.4711 3.67441 23.9984 5 24H19C20.3256 23.9984 21.5964 23.4711 22.5338 22.5338C23.4711 21.5964 23.9984 20.3256 24 19V7C23.9984 5.67441 23.4711 4.40356 22.5338 3.46622C21.5964 2.52888 20.3256 2.00159 19 2ZM2 7C2 6.20435 2.31607 5.44129 2.87868 4.87868C3.44129 4.31607 4.20435 4 5 4H19C19.7956 4 20.5587 4.31607 21.1213 4.87868C21.6839 5.44129 22 6.20435 22 7V8H2V7ZM19 22H5C4.20435 22 3.44129 21.6839 2.87868 21.1213C2.31607 20.5587 2 19.7956 2 19V10H22V19C22 19.7956 21.6839 20.5587 21.1213 21.1213C20.5587 21.6839 19.7956 22 19 22Z" fill="var(--color-flat-icon)"></path>
      <path d="M12 16.5C12.8284 16.5 13.5 15.8284 13.5 15C13.5 14.1716 12.8284 13.5 12 13.5C11.1716 13.5 10.5 14.1716 10.5 15C10.5 15.8284 11.1716 16.5 12 16.5Z" fill="var(--color-flat-icon)"></path>
      <path d="M6.99985 16.5C7.82827 16.5 8.49985 15.8284 8.49985 15C8.49985 14.1716 7.82827 13.5 6.99985 13.5C6.17142 13.5 5.49985 14.1716 5.49985 15C5.49985 15.8284 6.17142 16.5 6.99985 16.5Z" fill="var(--color-flat-icon)"></path>
      <path d="M17.0002 16.5C17.8286 16.5 18.5002 15.8284 18.5002 15C18.5002 14.1716 17.8286 13.5 17.0002 13.5C16.1717 13.5 15.5002 14.1716 15.5002 15C15.5002 15.8284 16.1717 16.5 17.0002 16.5Z" fill="var(--color-flat-icon)"></path>
    </g>
    <defs>
      <clipPath id="clip0_617_1520">
        <rect width="24" height="24" fill="white"></rect>
      </clipPath>
    </defs>
  </symbol>
  <symbol fill="none" xmlns="http://www.w3.org/2000/svg" viewBox="0 0 24 24" id="credit-card">
    <g clip-path="url(#clip0_617_1745)">
      <path d="M5.50007 17.0002C6.3285 17.0002 7.00007 16.3286 7.00007 15.5002C7.00007 14.6717 6.3285 14.0002 5.50007 14.0002C4.67165 14.0002 4.00007 14.6717 4.00007 15.5002C4.00007 16.3286 4.67165 17.0002 5.50007 17.0002Z" fill="var(--color-flat-icon)"></path>
      <path d="M19 3H4.99999C3.6744 3.00159 2.40355 3.52888 1.46621 4.46622C0.528874 5.40356 0.00158023 6.67441 -7.62939e-06 8L-7.62939e-06 16C0.00158023 17.3256 0.528874 18.5964 1.46621 19.5338C2.40355 20.4711 3.6744 20.9984 4.99999 21H19C20.3256 20.9984 21.5964 20.4711 22.5338 19.5338C23.4711 18.5964 23.9984 17.3256 24 16V8C23.9984 6.67441 23.4711 5.40356 22.5338 4.46622C21.5964 3.52888 20.3256 3.00159 19 3ZM4.99999 5H19C19.7956 5 20.5587 5.31607 21.1213 5.87868C21.6839 6.44129 22 7.20435 22 8H1.99999C1.99999 7.20435 2.31606 6.44129 2.87867 5.87868C3.44128 5.31607 4.20434 5 4.99999 5ZM19 19H4.99999C4.20434 19 3.44128 18.6839 2.87867 18.1213C2.31606 17.5587 1.99999 16.7956 1.99999 16V10H22V16C22 16.7956 21.6839 17.5587 21.1213 18.1213C20.5587 18.6839 19.7956 19 19 19Z" fill="var(--color-flat-icon)"></path>
    </g>
    <defs>
      <clipPath id="clip0_617_1745">
        <rect width="24" height="24" fill="white"></rect>
      </clipPath>
    </defs>
  </symbol>
  <symbol fill="none" xmlns="http://www.w3.org/2000/svg" viewBox="0 0 24 24" id="envelope">
    <g clip-path="url(#clip0_617_1874)">
      <path d="M19 0.999832H4.99999C3.6744 1.00142 2.40355 1.52871 1.46621 2.46605C0.528874 3.40339 0.00158023 4.67424 -7.62939e-06 5.99983L-7.62939e-06 17.9998C0.00158023 19.3254 0.528874 20.5963 1.46621 21.5336C2.40355 22.471 3.6744 22.9982 4.99999 22.9998H19C20.3256 22.9982 21.5964 22.471 22.5338 21.5336C23.4711 20.5963 23.9984 19.3254 24 17.9998V5.99983C23.9984 4.67424 23.4711 3.40339 22.5338 2.46605C21.5964 1.52871 20.3256 1.00142 19 0.999832ZM4.99999 2.99983H19C19.5988 3.00101 20.1835 3.18135 20.6789 3.51764C21.1744 3.85393 21.5578 4.33078 21.78 4.88683L14.122 12.5458C13.5584 13.1071 12.7954 13.4223 12 13.4223C11.2046 13.4223 10.4416 13.1071 9.87799 12.5458L2.21999 4.88683C2.44214 4.33078 2.82561 3.85393 3.32104 3.51764C3.81647 3.18135 4.40121 3.00101 4.99999 2.99983ZM19 20.9998H4.99999C4.20434 20.9998 3.44128 20.6838 2.87867 20.1212C2.31606 19.5585 1.99999 18.7955 1.99999 17.9998V7.49983L8.46399 13.9598C9.40262 14.8961 10.6742 15.4219 12 15.4219C13.3257 15.4219 14.5974 14.8961 15.536 13.9598L22 7.49983V17.9998C22 18.7955 21.6839 19.5585 21.1213 20.1212C20.5587 20.6838 19.7956 20.9998 19 20.9998Z" fill="var(--color-flat-icon)"></path>
    </g>
    <defs>
      <clipPath id="clip0_617_1874">
        <rect width="24" height="24" fill="white"></rect>
      </clipPath>
    </defs>
  </symbol>
  <symbol fill="none" xmlns="http://www.w3.org/2000/svg" viewBox="0 0 24 24" id="eye-crossed">
    <g clip-path="url(#clip0_617_1891)">
      <path d="M23.2709 9.41882C22.3681 7.94054 21.2294 6.62007 19.8999 5.50982L22.6999 2.70982C22.882 2.52122 22.9828 2.26861 22.9806 2.00642C22.9783 1.74422 22.8731 1.49341 22.6877 1.308C22.5023 1.12259 22.2515 1.01742 21.9893 1.01514C21.7271 1.01287 21.4745 1.11366 21.2859 1.29582L18.2409 4.34482C16.3533 3.22364 14.1953 2.63928 11.9999 2.65482C5.80888 2.65482 2.28088 6.89282 0.728883 9.41882C0.249411 10.1943 -0.00456238 11.0881 -0.00456238 11.9998C-0.00456238 12.9116 0.249411 13.8053 0.728883 14.5808C1.63164 16.0591 2.77037 17.3796 4.09988 18.4898L1.29988 21.2898C1.20437 21.3821 1.12819 21.4924 1.07578 21.6144C1.02337 21.7364 0.995787 21.8676 0.994633 22.0004C0.993479 22.1332 1.01878 22.2649 1.06906 22.3878C1.11934 22.5107 1.1936 22.6223 1.28749 22.7162C1.38138 22.8101 1.49303 22.8844 1.61593 22.9346C1.73883 22.9849 1.87051 23.0102 2.00328 23.0091C2.13606 23.0079 2.26728 22.9803 2.38929 22.9279C2.51129 22.8755 2.62164 22.7993 2.71388 22.7038L5.76588 19.6518C7.65115 20.7728 9.80655 21.3582 11.9999 21.3448C18.1909 21.3448 21.7189 17.1068 23.2709 14.5808C23.7504 13.8053 24.0043 12.9116 24.0043 11.9998C24.0043 11.0881 23.7504 10.1943 23.2709 9.41882ZM2.43288 13.5338C2.14802 13.0729 1.99713 12.5417 1.99713 11.9998C1.99713 11.4579 2.14802 10.9268 2.43288 10.4658C3.76688 8.29982 6.78188 4.65482 11.9999 4.65482C13.6602 4.64552 15.2971 5.04566 16.7659 5.81982L14.7529 7.83282C13.7928 7.19542 12.6418 6.90981 11.4951 7.02446C10.3484 7.13911 9.27675 7.64696 8.46189 8.46182C7.64702 9.27668 7.13918 10.3484 7.02453 11.4951C6.90988 12.6417 7.19549 13.7928 7.83288 14.7528L5.52288 17.0628C4.29799 16.0725 3.25272 14.8788 2.43288 13.5338ZM14.9999 11.9998C14.9999 12.7955 14.6838 13.5585 14.1212 14.1211C13.5586 14.6837 12.7955 14.9998 11.9999 14.9998C11.5544 14.9981 11.1151 14.8955 10.7149 14.6998L14.6999 10.7148C14.8956 11.115 14.9982 11.5543 14.9999 11.9998ZM8.99988 11.9998C8.99988 11.2042 9.31595 10.4411 9.87856 9.8785C10.4412 9.31589 11.2042 8.99982 11.9999 8.99982C12.4454 9.00154 12.8847 9.10411 13.2849 9.29982L9.29988 13.2848C9.10417 12.8846 9.00161 12.4453 8.99988 11.9998ZM21.5669 13.5338C20.2329 15.6998 17.2179 19.3448 11.9999 19.3448C10.3396 19.3541 8.70265 18.954 7.23388 18.1798L9.24688 16.1668C10.207 16.8042 11.358 17.0898 12.5047 16.9752C13.6513 16.8605 14.723 16.3527 15.5379 15.5378C16.3527 14.723 16.8606 13.6513 16.9752 12.5046C17.0899 11.3579 16.8043 10.2069 16.1669 9.24682L18.4769 6.93682C19.7018 7.9271 20.747 9.12087 21.5669 10.4658C21.8517 10.9268 22.0026 11.4579 22.0026 11.9998C22.0026 12.5417 21.8517 13.0729 21.5669 13.5338Z" fill="var(--color-flat-icon)"></path>
    </g>
    <defs>
      <clipPath id="clip0_617_1891">
        <rect width="24" height="24" fill="white"></rect>
      </clipPath>
    </defs>
  </symbol>
  <symbol fill="none" xmlns="http://www.w3.org/2000/svg" viewBox="0 0 24 24" id="eye">
    <g clip-path="url(#clip0_617_1897)">
      <path d="M23.2709 9.41886C21.7199 6.89286 18.1919 2.65486 11.9999 2.65486C5.80787 2.65486 2.27987 6.89286 0.728868 9.41886C0.249396 10.1944 -0.00457764 11.0881 -0.00457764 11.9999C-0.00457764 12.9116 0.249396 13.8054 0.728868 14.5809C2.27987 17.1069 5.80787 21.3449 11.9999 21.3449C18.1919 21.3449 21.7199 17.1069 23.2709 14.5809C23.7503 13.8054 24.0043 12.9116 24.0043 11.9999C24.0043 11.0881 23.7503 10.1944 23.2709 9.41886ZM21.5659 13.5339C20.2339 15.6999 17.2189 19.3449 11.9999 19.3449C6.78087 19.3449 3.76587 15.6999 2.43387 13.5339C2.149 13.0729 1.99812 12.5417 1.99812 11.9999C1.99812 11.458 2.149 10.9268 2.43387 10.4659C3.76587 8.29986 6.78087 4.65486 11.9999 4.65486C17.2189 4.65486 20.2339 8.29586 21.5659 10.4659C21.8507 10.9268 22.0016 11.458 22.0016 11.9999C22.0016 12.5417 21.8507 13.0729 21.5659 13.5339Z" fill="var(--color-flat-icon)"></path>
      <path d="M11.9998 6.99985C11.0109 6.99985 10.0442 7.29309 9.22194 7.8425C8.39969 8.39191 7.75883 9.1728 7.38039 10.0864C7.00195 11.0001 6.90294 12.0054 7.09586 12.9753C7.28879 13.9452 7.76499 14.8361 8.46425 15.5354C9.16352 16.2346 10.0544 16.7108 11.0243 16.9038C11.9942 17.0967 12.9996 16.9977 13.9132 16.6192C14.8268 16.2408 15.6077 15.5999 16.1571 14.7777C16.7065 13.9555 16.9998 12.9888 16.9998 11.9998C16.9982 10.6743 16.4709 9.40341 15.5336 8.46607C14.5962 7.52873 13.3254 7.00144 11.9998 6.99985ZM11.9998 14.9998C11.4064 14.9998 10.8264 14.8239 10.3331 14.4943C9.83973 14.1646 9.45521 13.6961 9.22815 13.1479C9.00109 12.5997 8.94168 11.9965 9.05743 11.4146C9.17319 10.8326 9.45891 10.2981 9.87847 9.87853C10.298 9.45897 10.8326 9.17325 11.4145 9.05749C11.9965 8.94174 12.5997 9.00115 13.1478 9.22821C13.696 9.45527 14.1646 9.83979 14.4942 10.3331C14.8238 10.8265 14.9998 11.4065 14.9998 11.9998C14.9998 12.7955 14.6837 13.5586 14.1211 14.1212C13.5585 14.6838 12.7954 14.9998 11.9998 14.9998Z" fill="var(--color-flat-icon)"></path>
    </g>
    <defs>
      <clipPath id="clip0_617_1897">
        <rect width="24" height="24" fill="white"></rect>
      </clipPath>
    </defs>
  </symbol>
  <symbol fill="none" xmlns="http://www.w3.org/2000/svg" viewBox="0 0 24 24" id="lock-locked">
    <g clip-path="url(#clip0_617_2247)">
      <path d="M18.9999 8.424V7C18.9999 5.14348 18.2624 3.363 16.9497 2.05025C15.6369 0.737494 13.8564 -3.8147e-06 11.9999 -3.8147e-06C10.1434 -3.8147e-06 8.36292 0.737494 7.05017 2.05025C5.73741 3.363 4.99992 5.14348 4.99992 7V8.424C4.10928 8.8127 3.35121 9.45252 2.81842 10.2652C2.28562 11.0779 2.00119 12.0282 1.99992 13V19C2.0015 20.3256 2.5288 21.5964 3.46614 22.5338C4.40347 23.4711 5.67432 23.9984 6.99992 24H16.9999C18.3255 23.9984 19.5964 23.4711 20.5337 22.5338C21.471 21.5964 21.9983 20.3256 21.9999 19V13C21.9986 12.0282 21.7142 11.0779 21.1814 10.2652C20.6486 9.45252 19.8906 8.8127 18.9999 8.424ZM6.99992 7C6.99992 5.67391 7.5267 4.40214 8.46438 3.46446C9.40206 2.52678 10.6738 2 11.9999 2C13.326 2 14.5978 2.52678 15.5354 3.46446C16.4731 4.40214 16.9999 5.67391 16.9999 7V8H6.99992V7ZM19.9999 19C19.9999 19.7956 19.6838 20.5587 19.1212 21.1213C18.5586 21.6839 17.7956 22 16.9999 22H6.99992C6.20427 22 5.44121 21.6839 4.8786 21.1213C4.31599 20.5587 3.99992 19.7956 3.99992 19V13C3.99992 12.2043 4.31599 11.4413 4.8786 10.8787C5.44121 10.3161 6.20427 10 6.99992 10H16.9999C17.7956 10 18.5586 10.3161 19.1212 10.8787C19.6838 11.4413 19.9999 12.2043 19.9999 13V19Z" fill="var(--color-flat-icon)"></path>
      <path d="M11.9999 13.9997C11.7347 13.9997 11.4804 14.105 11.2928 14.2926C11.1053 14.4801 10.9999 14.7345 10.9999 14.9997V16.9997C10.9999 17.2649 11.1053 17.5192 11.2928 17.7068C11.4804 17.8943 11.7347 17.9997 11.9999 17.9997C12.2652 17.9997 12.5195 17.8943 12.707 17.7068C12.8946 17.5192 12.9999 17.2649 12.9999 16.9997V14.9997C12.9999 14.7345 12.8946 14.4801 12.707 14.2926C12.5195 14.105 12.2652 13.9997 11.9999 13.9997Z" fill="var(--color-flat-icon)"></path>
    </g>
    <defs>
      <clipPath id="clip0_617_2247">
        <rect width="24" height="24" fill="white"></rect>
      </clipPath>
    </defs>
  </symbol>
  <symbol fill="none" xmlns="http://www.w3.org/2000/svg" viewBox="0 0 24 24" id="lock-unlocked">
    <g clip-path="url(#clip0_617_2968)">
      <path d="M17.0002 8.00087H7.00015V7.00087C6.99985 5.89228 7.36798 4.81501 8.04667 3.93845C8.72536 3.06188 9.67613 2.43573 10.7495 2.15843C11.8228 1.88113 12.9579 1.96842 13.9763 2.40656C14.9946 2.8447 15.8385 3.60885 16.3752 4.57887C16.4389 4.69371 16.5247 4.79487 16.6275 4.87657C16.7304 4.95827 16.8483 5.01892 16.9746 5.05504C17.1009 5.09116 17.233 5.10205 17.3635 5.0871C17.494 5.07214 17.6203 5.03163 17.7352 4.96787C17.85 4.90412 17.9512 4.81836 18.0329 4.71551C18.1146 4.61266 18.1752 4.49473 18.2113 4.36844C18.2474 4.24215 18.2583 4.10998 18.2434 3.97949C18.2284 3.84899 18.1879 3.72271 18.1242 3.60787C17.3724 2.25019 16.1909 1.18079 14.7652 0.567786C13.3395 -0.04522 11.7505 -0.167078 10.248 0.221368C8.74553 0.609813 7.41472 1.48654 6.46478 2.71372C5.51484 3.94091 4.99964 5.44898 5.00015 7.00087V8.42487C4.10951 8.81358 3.35145 9.4534 2.81865 10.2661C2.28586 11.0788 2.00143 12.0291 2.00015 13.0009V19.0009C2.00174 20.3265 2.52903 21.5973 3.46637 22.5347C4.40371 23.472 5.67456 23.9993 7.00015 24.0009H17.0002C18.3257 23.9993 19.5966 23.472 20.5339 22.5347C21.4713 21.5973 21.9986 20.3265 22.0002 19.0009V13.0009C21.9986 11.6753 21.4713 10.4044 20.5339 9.46709C19.5966 8.52975 18.3257 8.00246 17.0002 8.00087ZM20.0002 19.0009C20.0002 19.7965 19.6841 20.5596 19.1215 21.1222C18.5589 21.6848 17.7958 22.0009 17.0002 22.0009H7.00015C6.2045 22.0009 5.44144 21.6848 4.87883 21.1222C4.31622 20.5596 4.00015 19.7965 4.00015 19.0009V13.0009C4.00015 12.2052 4.31622 11.4422 4.87883 10.8796C5.44144 10.3169 6.2045 10.0009 7.00015 10.0009H17.0002C17.7958 10.0009 18.5589 10.3169 19.1215 10.8796C19.6841 11.4422 20.0002 12.2052 20.0002 13.0009V19.0009Z" fill="var(--color-flat-icon)"></path>
      <path d="M12.0002 14.0006C11.7349 14.0006 11.4806 14.106 11.293 14.2935C11.1055 14.481 11.0002 14.7354 11.0002 15.0006V17.0006C11.0002 17.2658 11.1055 17.5202 11.293 17.7077C11.4806 17.8952 11.7349 18.0006 12.0002 18.0006C12.2654 18.0006 12.5197 17.8952 12.7073 17.7077C12.8948 17.5202 13.0002 17.2658 13.0002 17.0006V15.0006C13.0002 14.7354 12.8948 14.481 12.7073 14.2935C12.5197 14.106 12.2654 14.0006 12.0002 14.0006Z" fill="var(--color-flat-icon)"></path>
    </g>
    <defs>
      <clipPath id="clip0_617_2968">
        <rect width="24" height="24" fill="white"></rect>
      </clipPath>
    </defs>
  </symbol>
  <symbol fill="none" xmlns="http://www.w3.org/2000/svg" viewBox="0 0 24 24" id="pencil">
    <g clip-path="url(#clip0_617_2421)">
      <path d="M22.8532 1.148C22.1733 0.469196 21.2519 0.0879364 20.2912 0.0879364C19.3305 0.0879364 18.409 0.469196 17.7292 1.148L1.46517 17.412C0.999419 17.8751 0.63013 18.426 0.378666 19.0328C0.127202 19.6396 -0.00144539 20.2902 0.000167569 20.947V23C0.000167569 23.2652 0.105524 23.5196 0.293061 23.7071C0.480597 23.8946 0.734951 24 1.00017 24H3.05317C3.70993 24.0019 4.36054 23.8734 4.96732 23.6221C5.57411 23.3708 6.12502 23.0017 6.58817 22.536L22.8532 6.271C23.5317 5.59119 23.9127 4.66997 23.9127 3.7095C23.9127 2.74903 23.5317 1.8278 22.8532 1.148ZM5.17417 21.122C4.61017 21.6822 3.84813 21.9977 3.05317 22H2.00017V20.947C1.99916 20.5529 2.07632 20.1625 2.2272 19.7985C2.37809 19.4344 2.59968 19.1039 2.87917 18.826L15.2222 6.483L17.5222 8.783L5.17417 21.122ZM21.4382 4.857L18.9322 7.364L16.6322 5.069L19.1392 2.562C19.2902 2.41131 19.4694 2.29184 19.6666 2.21041C19.8638 2.12898 20.0751 2.08719 20.2884 2.08742C20.5018 2.08765 20.713 2.1299 20.91 2.21176C21.107 2.29362 21.286 2.41348 21.4367 2.5645C21.5874 2.71552 21.7068 2.89474 21.7883 3.09193C21.8697 3.28913 21.9115 3.50042 21.9112 3.71377C21.911 3.92711 21.8688 4.13832 21.7869 4.33533C21.705 4.53235 21.5852 4.71131 21.4342 4.862L21.4382 4.857Z" fill="var(--color-flat-icon)"></path>
    </g>
    <defs>
      <clipPath id="clip0_617_2421">
        <rect width="24" height="24" fill="white"></rect>
      </clipPath>
    </defs>
  </symbol>
  <symbol fill="none" xmlns="http://www.w3.org/2000/svg" viewBox="0 0 24 24" id="plus-small">
    <path d="M17 11H13V7C13 6.73478 12.8946 6.48043 12.7071 6.29289C12.5196 6.10536 12.2652 6 12 6C11.7348 6 11.4804 6.10536 11.2929 6.29289C11.1054 6.48043 11 6.73478 11 7V11H7C6.73478 11 6.48043 11.1054 6.29289 11.2929C6.10536 11.4804 6 11.7348 6 12C6 12.2652 6.10536 12.5196 6.29289 12.7071C6.48043 12.8946 6.73478 13 7 13H11V17C11 17.2652 11.1054 17.5196 11.2929 17.7071C11.4804 17.8946 11.7348 18 12 18C12.2652 18 12.5196 17.8946 12.7071 17.7071C12.8946 17.5196 13 17.2652 13 17V13H17C17.2652 13 17.5196 12.8946 17.7071 12.7071C17.8946 12.5196 18 12.2652 18 12C18 11.7348 17.8946 11.4804 17.7071 11.2929C17.5196 11.1054 17.2652 11 17 11Z" fill="var(--color-flat-icon)"></path>
  </symbol>
  <symbol fill="none" xmlns="http://www.w3.org/2000/svg" viewBox="0 0 24 24" id="search">
    <g clip-path="url(#clip0_617_2612)">
      <path d="M23.7068 22.2937L17.7378 16.3247C19.3644 14.3353 20.1642 11.7968 19.9716 9.23426C19.7791 6.67173 18.609 4.28123 16.7034 2.55722C14.7977 0.833208 12.3024 -0.0924103 9.73342 -0.0281784C7.16447 0.0360534 4.71849 1.08522 2.9014 2.90231C1.08431 4.7194 0.0351379 7.16539 -0.029094 9.73434C-0.0933258 12.3033 0.832293 14.7987 2.5563 16.7043C4.28031 18.6099 6.67081 19.78 9.23334 19.9725C11.7959 20.1651 14.3344 19.3653 16.3238 17.7387L22.2928 23.7077C22.4814 23.8899 22.734 23.9907 22.9962 23.9884C23.2584 23.9861 23.5092 23.8809 23.6946 23.6955C23.88 23.5101 23.9852 23.2593 23.9875 22.9971C23.9897 22.7349 23.8889 22.4823 23.7068 22.2937ZM9.99978 18.0007C8.41753 18.0007 6.87081 17.5315 5.55522 16.6525C4.23963 15.7734 3.21425 14.524 2.60875 13.0622C2.00324 11.6004 1.84482 9.99182 2.1535 8.43998C2.46218 6.88813 3.22411 5.46266 4.34293 4.34384C5.46175 3.22502 6.88721 2.4631 8.43906 2.15442C9.99091 1.84573 11.5994 2.00416 13.0613 2.60966C14.5231 3.21516 15.7725 4.24054 16.6515 5.55614C17.5306 6.87173 17.9998 8.41845 17.9998 10.0007C17.9974 12.1217 17.1538 14.1551 15.654 15.6549C14.1542 17.1547 12.1208 17.9983 9.99978 18.0007Z" fill="var(--color-flat-icon)"></path>
    </g>
    <defs>
      <clipPath id="clip0_617_2612">
        <rect width="24" height="24" fill="white"></rect>
      </clipPath>
    </defs>
  </symbol>
  <symbol fill="none" xmlns="http://www.w3.org/2000/svg" viewBox="0 0 24 24" id="user">
    <g clip-path="url(#clip0_617_2995)">
      <path d="M12 11.9999C13.1867 11.9999 14.3467 11.648 15.3334 10.9888C16.3201 10.3295 17.0892 9.3924 17.5433 8.29604C17.9974 7.19969 18.1162 5.99329 17.8847 4.8294C17.6532 3.66551 17.0818 2.59642 16.2426 1.7573C15.4035 0.918186 14.3344 0.346741 13.1705 0.11523C12.0067 -0.116281 10.8003 0.00253868 9.7039 0.456664C8.60754 0.91079 7.67047 1.67983 7.01118 2.66652C6.35189 3.65321 6 4.81325 6 5.99994C6.00159 7.59075 6.63424 9.11595 7.75911 10.2408C8.88399 11.3657 10.4092 11.9984 12 11.9999ZM12 1.99994C12.7911 1.99994 13.5645 2.23454 14.2223 2.67406C14.8801 3.11359 15.3928 3.7383 15.6955 4.46921C15.9983 5.20011 16.0775 6.00438 15.9231 6.7803C15.7688 7.55623 15.3878 8.26896 14.8284 8.82837C14.269 9.38778 13.5563 9.76874 12.7804 9.92308C12.0044 10.0774 11.2002 9.99821 10.4693 9.69546C9.73836 9.39271 9.11365 8.88002 8.67412 8.22222C8.2346 7.56443 8 6.79107 8 5.99994C8 4.93908 8.42143 3.92166 9.17157 3.17151C9.92172 2.42137 10.9391 1.99994 12 1.99994Z" fill="var(--color-flat-icon)"></path>
      <path d="M12 14.0006C9.61386 14.0033 7.32622 14.9523 5.63896 16.6396C3.95171 18.3268 3.00265 20.6145 3 23.0006C3 23.2658 3.10536 23.5202 3.29289 23.7077C3.48043 23.8953 3.73478 24.0006 4 24.0006C4.26522 24.0006 4.51957 23.8953 4.70711 23.7077C4.89464 23.5202 5 23.2658 5 23.0006C5 21.1441 5.7375 19.3636 7.05025 18.0509C8.36301 16.7381 10.1435 16.0006 12 16.0006C13.8565 16.0006 15.637 16.7381 16.9497 18.0509C18.2625 19.3636 19 21.1441 19 23.0006C19 23.2658 19.1054 23.5202 19.2929 23.7077C19.4804 23.8953 19.7348 24.0006 20 24.0006C20.2652 24.0006 20.5196 23.8953 20.7071 23.7077C20.8946 23.5202 21 23.2658 21 23.0006C20.9974 20.6145 20.0483 18.3268 18.361 16.6396C16.6738 14.9523 14.3861 14.0033 12 14.0006Z" fill="var(--color-flat-icon)"></path>
    </g>
    <defs>
      <clipPath id="clip0_617_2995">
        <rect width="24" height="24" fill="white"></rect>
      </clipPath>
    </defs>
  </symbol>
  <symbol id="menu-burger" viewBox="0 0 24 24" fill="none" xmlns="http://www.w3.org/2000/svg">
    <g clip-path="url(#clip0_617_2308)">
        <path d="M23 10.9997H0.999992C0.447708 10.9997 -7.62939e-06 11.4474 -7.62939e-06 11.9997C-7.62939e-06 12.552 0.447708 12.9997 0.999992 12.9997H23C23.5523 12.9997 24 12.552 24 11.9997C24 11.4474 23.5523 10.9997 23 10.9997Z" fill="#374957"/>
        <path d="M23 4.00031H0.999992C0.447708 4.00031 -7.62939e-06 4.44802 -7.62939e-06 5.0003C-7.62939e-06 5.55259 0.447708 6.0003 0.999992 6.0003H23C23.5523 6.0003 24 5.55259 24 5.0003C24 4.44802 23.5523 4.00031 23 4.00031Z" fill="#374957"/>
        <path d="M23 18H0.999992C0.447708 18 -7.62939e-06 18.4477 -7.62939e-06 19C-7.62939e-06 19.5523 0.447708 20 0.999992 20H23C23.5523 20 24 19.5523 24 19C24 18.4477 23.5523 18 23 18Z" fill="#374957"/>
    </g>
    <defs>
        <clipPath id="clip0_617_2308">
            <rect width="24" height="24" fill="white"/>
        </clipPath>
    </defs>
    </symbol>
</svg>
