<svg width="0" height="0" class="hidden">
  <symbol fill="none" xmlns="http://www.w3.org/2000/svg" viewBox="0 0 24 24" id="lock-locked">
    <g clip-path="url(#clip0_620_9129)">
      <path d="M18.9999 8.424V7C18.9999 5.14348 18.2624 3.363 16.9497 2.05025C15.6369 0.737494 13.8565 -3.8147e-06 11.9999 -3.8147e-06C10.1434 -3.8147e-06 8.36295 0.737494 7.05019 2.05025C5.73744 3.363 4.99994 5.14348 4.99994 7V8.424C4.1093 8.8127 3.35123 9.45252 2.81844 10.2652C2.28564 11.0779 2.00122 12.0282 1.99994 13V19C2.00153 20.3256 2.52882 21.5964 3.46616 22.5338C4.4035 23.4711 5.67434 23.9984 6.99994 24H16.9999C18.3255 23.9984 19.5964 23.4711 20.5337 22.5338C21.4711 21.5964 21.9984 20.3256 21.9999 19V13C21.9987 12.0282 21.7142 11.0779 21.1814 10.2652C20.6486 9.45252 19.8906 8.8127 18.9999 8.424ZM6.99994 7C6.99994 5.67391 7.52672 4.40214 8.46441 3.46446C9.40209 2.52678 10.6739 2 11.9999 2C13.326 2 14.5978 2.52678 15.5355 3.46446C16.4732 4.40214 16.9999 5.67391 16.9999 7V8H6.99994V7ZM19.9999 19C19.9999 19.7956 19.6839 20.5587 19.1213 21.1213C18.5587 21.6839 17.7956 22 16.9999 22H6.99994C6.20429 22 5.44123 21.6839 4.87862 21.1213C4.31601 20.5587 3.99994 19.7956 3.99994 19V13C3.99994 12.2043 4.31601 11.4413 4.87862 10.8787C5.44123 10.3161 6.20429 10 6.99994 10H16.9999C17.7956 10 18.5587 10.3161 19.1213 10.8787C19.6839 11.4413 19.9999 12.2043 19.9999 13V19Z" fill="var(--color-flat-icons, #B8B8B8)"></path>
      <path d="M11.9999 13.9997C11.7347 13.9997 11.4804 14.105 11.2928 14.2926C11.1053 14.4801 10.9999 14.7345 10.9999 14.9997V16.9997C10.9999 17.2649 11.1053 17.5192 11.2928 17.7068C11.4804 17.8943 11.7347 17.9997 11.9999 17.9997C12.2652 17.9997 12.5195 17.8943 12.7071 17.7068C12.8946 17.5192 13 17.2649 13 16.9997V14.9997C13 14.7345 12.8946 14.4801 12.7071 14.2926C12.5195 14.105 12.2652 13.9997 11.9999 13.9997Z" fill="var(--color-flat-icons, #B8B8B8)"></path>
    </g>
    <defs>
      <clipPath id="clip0_620_9129">
        <rect width="24" height="24" fill="white"></rect>
      </clipPath>
    </defs>
  </symbol>
  <symbol fill="none" xmlns="http://www.w3.org/2000/svg" viewBox="0 0 24 24" id="mail">
    <path d="M19 0.99984H5C3.67441 1.00143 2.40356 1.52872 1.46622 2.46606C0.528882 3.4034 0.00158786 4.67424 0 5.99984L0 17.9998C0.00158786 19.3254 0.528882 20.5963 1.46622 21.5336C2.40356 22.471 3.67441 22.9983 5 22.9998H19C20.3256 22.9983 21.5964 22.471 22.5338 21.5336C23.4711 20.5963 23.9984 19.3254 24 17.9998V5.99984C23.9984 4.67424 23.4711 3.4034 22.5338 2.46606C21.5964 1.52872 20.3256 1.00143 19 0.99984ZM5 2.99984H19C19.5988 3.00102 20.1835 3.18135 20.679 3.51764C21.1744 3.85393 21.5579 4.33079 21.78 4.88684L14.122 12.5458C13.5584 13.1072 12.7954 13.4223 12 13.4223C11.2046 13.4223 10.4416 13.1072 9.878 12.5458L2.22 4.88684C2.44215 4.33079 2.82561 3.85393 3.32105 3.51764C3.81648 3.18135 4.40121 3.00102 5 2.99984ZM19 20.9998H5C4.20435 20.9998 3.44129 20.6838 2.87868 20.1212C2.31607 19.5586 2 18.7955 2 17.9998V7.49984L8.464 13.9598C9.40263 14.8961 10.6743 15.4219 12 15.4219C13.3257 15.4219 14.5974 14.8961 15.536 13.9598L22 7.49984V17.9998C22 18.7955 21.6839 19.5586 21.1213 20.1212C20.5587 20.6838 19.7956 20.9998 19 20.9998Z" fill="var(--color-flat-icons, #B8B8B8)"></path>
  </symbol>
  <symbol fill="none" xmlns="http://www.w3.org/2000/svg" viewBox="0 0 24 24" id="user">
    <g clip-path="url(#clip0_620_9130)">
      <path d="M12 11.9999C13.1867 11.9999 14.3467 11.648 15.3334 10.9888C16.3201 10.3295 17.0892 9.3924 17.5433 8.29604C17.9974 7.19969 18.1162 5.99329 17.8847 4.8294C17.6532 3.66551 17.0818 2.59642 16.2426 1.7573C15.4035 0.918186 14.3344 0.346741 13.1705 0.11523C12.0067 -0.116281 10.8003 0.00253868 9.7039 0.456664C8.60754 0.91079 7.67047 1.67983 7.01118 2.66652C6.35189 3.65321 6 4.81325 6 5.99994C6.00159 7.59075 6.63424 9.11595 7.75911 10.2408C8.88399 11.3657 10.4092 11.9984 12 11.9999ZM12 1.99994C12.7911 1.99994 13.5645 2.23454 14.2223 2.67406C14.8801 3.11359 15.3928 3.7383 15.6955 4.46921C15.9983 5.20011 16.0775 6.00438 15.9231 6.7803C15.7688 7.55623 15.3878 8.26896 14.8284 8.82837C14.269 9.38778 13.5563 9.76874 12.7804 9.92308C12.0044 10.0774 11.2002 9.99821 10.4693 9.69546C9.73836 9.39271 9.11365 8.88002 8.67412 8.22222C8.2346 7.56443 8 6.79107 8 5.99994C8 4.93908 8.42143 3.92166 9.17157 3.17151C9.92172 2.42137 10.9391 1.99994 12 1.99994Z" fill="var(--color-flat-icons, #B8B8B8)"></path>
      <path d="M12 14.0006C9.61386 14.0033 7.32622 14.9523 5.63896 16.6396C3.95171 18.3268 3.00265 20.6145 3 23.0006C3 23.2658 3.10536 23.5202 3.29289 23.7077C3.48043 23.8953 3.73478 24.0006 4 24.0006C4.26522 24.0006 4.51957 23.8953 4.70711 23.7077C4.89464 23.5202 5 23.2658 5 23.0006C5 21.1441 5.7375 19.3636 7.05025 18.0509C8.36301 16.7381 10.1435 16.0006 12 16.0006C13.8565 16.0006 15.637 16.7381 16.9497 18.0509C18.2625 19.3636 19 21.1441 19 23.0006C19 23.2658 19.1054 23.5202 19.2929 23.7077C19.4804 23.8953 19.7348 24.0006 20 24.0006C20.2652 24.0006 20.5196 23.8953 20.7071 23.7077C20.8946 23.5202 21 23.2658 21 23.0006C20.9974 20.6145 20.0483 18.3268 18.361 16.6396C16.6738 14.9523 14.3861 14.0033 12 14.0006Z" fill="var(--color-flat-icons, #B8B8B8)"></path>
    </g>
    <defs>
      <clipPath id="clip0_620_9130">
        <rect width="24" height="24" fill="white"></rect>
      </clipPath>
    </defs>
  </symbol>
</svg>
